<?xml version="1.0" standalone="no"?>
<!DOCTYPE svg PUBLIC "-//W3C//DTD SVG 20010904//EN"
 "http://www.w3.org/TR/2001/REC-SVG-20010904/DTD/svg10.dtd">
<svg version="1.0" xmlns="http://www.w3.org/2000/svg"
 width="1717.000000pt" height="1717.000000pt" viewBox="0 0 1717.000000 1717.000000"
 preserveAspectRatio="xMidYMid meet">
<metadata>
Created by potrace 1.14, written by Peter Selinger 2001-2017
</metadata>
<g transform="translate(0.000000,1717.000000) scale(0.100000,-0.100000)"
fill="#000000" stroke="none">
<path d="M263 17153 c3 -10 802 -1937 1777 -4283 975 -2346 1773 -4272 1772
-4280 0 -8 -798 -1936 -1773 -4285 -974 -2349 -1774 -4278 -1776 -4288 -5 -16
122 -17 2569 -17 l2573 0 895 2165 895 2165 1610 0 c1954 0 2147 6 2605 71
1060 151 2062 566 2925 1211 1543 1153 2507 2990 2563 4886 4 123 4 226 1 228
-3 2 -9 106 -12 231 -37 1341 -522 2659 -1373 3735 -283 357 -642 721 -994
1009 -719 588 -1592 1032 -2479 1258 -479 123 -900 183 -1411 201 -156 6
-2349 10 -5319 10 -4808 0 -5053 -1 -5048 -17z m10312 -4263 c529 -49 1001
-278 1375 -666 311 -322 508 -725 576 -1174 23 -154 23 -453 0 -605 -72 -475
-277 -885 -606 -1215 -321 -322 -729 -530 -1186 -605 -82 -14 -246 -18 -937
-27 -460 -6 -839 -9 -841 -7 -5 7 -1769 4273 -1774 4292 -4 16 79 17 1639 17
1031 0 1685 -4 1754 -10z"/>
</g>
</svg>
